<svg width="39" height="54" viewBox="0 0 39 54" fill="none" xmlns="http://www.w3.org/2000/svg">
<path d="M6.42578 27.7734H29.3018V53.2198L17.8638 45.7518L6.42578 53.2198V27.7734Z" fill="#CE4444"/>
<path d="M6.42578 25.2954H29.3018V50.7418L17.8638 43.2738L6.42578 50.7418V25.2954Z" fill="#983535"/>
<path d="M29.3022 53.2198V27.7734H27.5029V52.0451L29.3022 53.2198Z" fill="#CE4444"/>
<path d="M6.42537 53.2198V27.7734H8.22461V52.0451L6.42537 53.2198Z" fill="#CE4444"/>
<rect x="6.42578" y="29.9219" width="22.876" height="16.7072" fill="url(#paint0_linear_666_29707)"/>
<circle cx="17.8639" cy="21.0543" r="17.6354" fill="#FFDE69" stroke="#6E5600" stroke-width="0.456923"/>
<ellipse cx="17.9602" cy="21.1718" rx="13.3528" ry="13.2724" fill="#9C7A01"/>
<mask id="mask0_666_29707" style="mask-type:alpha" maskUnits="userSpaceOnUse" x="5" y="9" width="27" height="27">
<circle cx="18.6079" cy="22.5625" r="13.3296" fill="#C28B37"/>
</mask>
<g mask="url(#mask0_666_29707)">
<circle cx="17.898" cy="21.1431" r="13.3296" fill="#C09525"/>
</g>
<path d="M17.9927 35.8524C26.2077 35.8524 32.9192 29.3131 32.9192 21.183C32.9192 13.0528 26.2077 6.51347 17.9927 6.51347C9.77775 6.51347 3.06621 13.0528 3.06621 21.183C3.06621 29.3131 9.77775 35.8524 17.9927 35.8524Z" fill="#6F5600" stroke="#D1A635" stroke-width="3.12149"/>
<mask id="mask1_666_29707" style="mask-type:alpha" maskUnits="userSpaceOnUse" x="5" y="9" width="27" height="27">
<circle cx="18.6014" cy="22.5501" r="13.284" fill="#C28B37"/>
</mask>
<g mask="url(#mask1_666_29707)">
<circle cx="17.8944" cy="21.1351" r="13.284" fill="#936A00"/>
</g>
<path d="M17.9927 11.1424L21.1835 17.448L21.2934 17.6653L21.5352 17.6951L27.8605 18.4764L23.507 23.3001L23.3585 23.4647L23.3958 23.6832L24.5882 30.6574L18.1951 27.4989L17.9927 27.3989L17.7903 27.4989L11.3987 30.6567L12.6014 23.6839L12.6393 23.4647L12.49 23.2997L8.12616 18.4762L14.4502 17.6951L14.692 17.6653L14.8019 17.448L17.9927 11.1424Z" fill="url(#paint1_linear_666_29707)" stroke="#7E6200" stroke-width="0.913846"/>
<path d="M28.2586 10.7426L29.7918 7.36846L28.2586 3.99429L31.6328 5.52743L35.007 3.99429L33.4738 7.36846L35.007 10.7426L31.6328 9.2095L28.2586 10.7426Z" fill="white"/>
<defs>
<linearGradient id="paint0_linear_666_29707" x1="17.8638" y1="29.9219" x2="17.8638" y2="46.6291" gradientUnits="userSpaceOnUse">
<stop stop-color="#4A0D0D"/>
<stop offset="1" stop-color="#983535" stop-opacity="0"/>
</linearGradient>
<linearGradient id="paint1_linear_666_29707" x1="17.9927" y1="10.1304" x2="17.9927" y2="31.4642" gradientUnits="userSpaceOnUse">
<stop stop-color="#FFF5D3"/>
<stop offset="1" stop-color="#FFE178"/>
</linearGradient>
</defs>
</svg>
