<svg width="17" height="16" viewBox="0 0 17 16" fill="none" xmlns="http://www.w3.org/2000/svg">
<path d="M7.75672 0.489876C8.03172 -0.163293 8.96832 -0.163292 9.24332 0.489878L10.8663 4.345C10.9823 4.62036 11.2445 4.8085 11.5454 4.83233L15.7582 5.16599C16.4719 5.22253 16.7614 6.10252 16.2175 6.56274L13.0079 9.27896C12.7786 9.473 12.6784 9.77745 12.7485 10.0675L13.7291 14.1288C13.8952 14.8169 13.1375 15.3608 12.5264 14.9921L8.91965 12.8157C8.66202 12.6602 8.33802 12.6602 8.0804 12.8157L4.4736 14.9921C3.8625 15.3608 3.10477 14.8169 3.27091 14.1288L4.25155 10.0675C4.32159 9.77745 4.22147 9.473 3.99221 9.27896L0.78245 6.56274C0.238625 6.10252 0.528054 5.22253 1.24183 5.16599L5.4547 4.83233C5.75561 4.8085 6.01774 4.62036 6.13367 4.345L7.75672 0.489876Z" fill="black"/>
</svg>
