<svg width="1920" height="153" viewBox="0 0 1920 153" fill="none" xmlns="http://www.w3.org/2000/svg">
<rect width="1920" height="192" transform="translate(0 2)" fill="white"/>
<line y1="1" x2="1920" y2="1" stroke="#F1F3F9" stroke-width="2"/>
<g opacity="0.1">
<g clip-path="url(#clip0_870_43864)">
<path d="M384 180.285L384 194L330.857 194C346.629 185.291 364.731 180.285 384 180.285ZM205.714 194C205.714 190.362 204.269 186.874 201.697 184.302C199.126 181.73 195.637 180.285 192 180.285C188.363 180.285 184.874 181.73 182.303 184.302C179.731 186.874 178.286 190.362 178.286 194L150.24 194C134.129 168.764 111.918 147.996 85.6592 133.614C59.4 119.232 29.9397 111.7 -4.79592e-06 111.714L-4.19645e-06 97.9996C4.59428 97.9996 9.18857 98.1367 13.7143 98.4796L13.7143 97.9996C13.7143 94.3623 12.2694 90.8741 9.69746 88.3021C7.12553 85.7302 3.63725 84.2853 -3.59698e-06 84.2853L-2.99751e-06 70.571C6.7997 70.5709 13.357 73.0966 18.3999 77.6579C23.4427 82.2193 26.6115 88.4911 27.2914 95.2567C32.9296 85.9056 39.3528 77.0509 46.4914 68.7882C41.5463 60.9277 34.6867 54.4513 26.5552 49.9658C18.4237 45.4803 9.28658 43.1325 -1.79856e-06 43.1425L-1.19909e-06 29.4282C10.9791 29.4197 21.7994 32.0502 31.5491 37.0981C41.2989 42.1461 49.6926 49.4635 56.0229 58.4339C62.4686 51.9196 69.4629 45.8853 76.8 40.3996C67.8653 28.4689 56.2716 18.786 42.9398 12.1201C29.608 5.45418 14.9054 1.98893 -1.5287e-10 1.99959L53.1429 1.99959C66.8571 9.54245 78.72 20.0339 88.1143 32.5139C95.7943 27.5767 103.886 23.1196 112.32 19.2796C107.999 13.1369 103.183 7.35764 97.92 1.9996L116.434 1.9996C119.52 5.8396 122.469 9.81674 125.28 13.931C134.194 10.6396 143.314 7.96531 152.709 6.04531C151.954 4.67388 151.131 3.30246 150.24 1.9996L178.286 1.9996L178.286 2.4796C187.417 1.83494 196.583 1.83494 205.714 2.4796L205.714 1.9996L233.76 1.9996L231.223 6.04532C240.686 7.96532 249.874 10.6396 258.72 13.931C261.463 9.81675 264.48 5.8396 267.634 1.9996L286.08 1.9996C280.817 7.35765 276.001 13.1369 271.68 19.2796C280.114 23.1196 288.206 27.5082 295.954 32.5139C305.295 19.9839 317.192 9.58259 330.857 1.99961L384 1.99961C352.594 1.99961 324.686 17.0853 307.2 40.3996C314.537 45.8853 321.531 51.9196 327.977 58.4339C334.307 49.4635 342.701 42.1461 352.451 37.0981C362.201 32.0502 373.021 29.4197 384 29.4282L384 43.1425C374.725 43.1441 365.602 45.4974 357.483 49.9824C349.365 54.4674 342.516 60.9376 337.577 68.7882C344.64 77.0168 351.086 85.931 356.709 95.2568C357.389 88.4911 360.557 82.2193 365.6 77.6579C370.643 73.0966 377.2 70.571 384 70.571L384 84.2853C382.158 84.2842 380.334 84.6542 378.639 85.3732C376.943 86.0922 375.409 87.1456 374.129 88.4703C372.849 89.7951 371.849 91.3642 371.189 93.0839C370.528 94.8036 370.221 96.6386 370.286 98.4796C374.85 98.1585 379.424 97.9985 384 97.9996L384 111.714C320.914 111.714 265.371 144.491 233.76 194L205.714 194ZM53.1429 194L-8.39274e-06 194L-7.79327e-06 180.285C19.2686 180.285 37.44 185.291 53.1429 194ZM384 139.142L384 152.857C345.6 152.857 310.971 168.628 286.08 194L267.566 194C295.269 160.468 337.166 139.142 384 139.142ZM116.366 194L97.92 194C73.0286 168.628 38.4 152.857 -6.59433e-06 152.857L-5.99486e-06 139.142C46.8343 139.142 88.7314 160.468 116.366 194ZM219.291 191.257C224.93 181.906 231.353 173.051 238.491 164.788C233.554 156.925 226.702 150.444 218.577 145.952C210.451 141.46 201.319 139.104 192.034 139.104C182.75 139.104 173.617 141.46 165.492 145.952C157.367 150.444 150.515 156.925 145.577 164.788C152.64 173.017 159.086 181.931 164.709 191.257C165.388 184.491 168.556 178.218 173.599 173.656C178.642 169.094 185.2 166.568 192 166.568C198.8 166.568 205.358 169.094 210.401 173.656C215.444 178.218 218.612 184.491 219.291 191.257ZM317.28 109.931C326.194 106.64 335.314 103.965 344.709 102.045C328.866 75.6906 306.473 53.8835 279.708 38.7442C252.943 23.6049 222.716 15.6485 191.966 15.6485C161.216 15.6485 130.989 23.6049 104.223 38.7442C77.4584 53.8835 55.0658 75.6906 39.2229 102.045C48.6857 103.965 57.8743 106.64 66.72 109.931C80.4934 89.3385 99.1305 72.4587 120.982 60.7853C142.834 49.112 167.226 43.0051 192 43.0051C216.774 43.0051 241.166 49.112 263.018 60.7853C284.87 72.4587 303.507 89.3385 317.28 109.931ZM280.046 128.514C287.794 123.577 295.817 119.12 304.32 115.28C291.693 97.2008 274.888 82.4373 255.333 72.2434C235.778 62.0494 214.052 56.7263 192 56.7263C169.948 56.7263 148.222 62.0494 128.667 72.2434C109.112 82.4373 92.3075 97.2008 79.68 115.28C88.1143 119.12 96.2057 123.508 103.954 128.514C114.146 114.758 127.419 103.581 142.708 95.8804C157.998 88.1793 174.88 84.1679 192 84.1679C209.12 84.1679 226.002 88.1793 241.292 95.8804C256.582 103.581 269.854 114.758 280.046 128.514ZM248.023 154.434C254.469 147.92 261.463 141.885 268.8 136.4C259.875 124.452 248.285 114.751 234.953 108.069C221.621 101.387 206.913 97.9079 192 97.9079C177.087 97.9079 162.379 101.387 149.047 108.069C135.715 114.751 124.125 124.452 115.2 136.4C122.537 141.885 129.531 147.92 135.977 154.434C142.299 145.45 150.689 138.118 160.439 133.056C170.19 127.995 181.014 125.353 192 125.353C202.986 125.353 213.81 127.995 223.561 133.056C233.311 138.118 241.701 145.45 248.023 154.434Z" fill="#9CA3AF"/>
</g>
<g clip-path="url(#clip1_870_43864)">
<path d="M768 180.285L768 194L714.857 194C730.629 185.291 748.731 180.285 768 180.285ZM589.714 194C589.714 190.362 588.269 186.874 585.697 184.302C583.126 181.73 579.637 180.285 576 180.285C572.363 180.285 568.874 181.73 566.303 184.302C563.731 186.874 562.286 190.362 562.286 194L534.24 194C518.129 168.764 495.918 147.996 469.659 133.614C443.4 119.232 413.94 111.7 384 111.714L384 97.9996C388.594 97.9996 393.189 98.1367 397.714 98.4796L397.714 97.9996C397.714 94.3623 396.269 90.8741 393.697 88.3021C391.126 85.7302 387.637 84.2853 384 84.2853L384 70.571C390.8 70.5709 397.357 73.0966 402.4 77.6579C407.443 82.2193 410.611 88.4911 411.291 95.2567C416.93 85.9056 423.353 77.0509 430.491 68.7882C425.546 60.9277 418.687 54.4513 410.555 49.9658C402.424 45.4803 393.287 43.1325 384 43.1425L384 29.4282C394.979 29.4197 405.799 32.0502 415.549 37.0981C425.299 42.1461 433.693 49.4635 440.023 58.4339C446.469 51.9196 453.463 45.8853 460.8 40.3996C451.865 28.4689 440.272 18.786 426.94 12.1201C413.608 5.45418 398.905 1.98893 384 1.99959L437.143 1.99959C450.857 9.54245 462.72 20.0339 472.114 32.5139C479.794 27.5767 487.886 23.1196 496.32 19.2796C491.999 13.1369 487.183 7.35764 481.92 1.9996L500.434 1.9996C503.52 5.8396 506.469 9.81674 509.28 13.931C518.194 10.6396 527.314 7.96531 536.709 6.04531C535.954 4.67388 535.131 3.30246 534.24 1.9996L562.286 1.9996L562.286 2.4796C571.417 1.83494 580.583 1.83494 589.714 2.4796L589.714 1.9996L617.76 1.9996L615.223 6.04532C624.686 7.96532 633.874 10.6396 642.72 13.931C645.463 9.81675 648.48 5.8396 651.634 1.9996L670.08 1.9996C664.817 7.35765 660.001 13.1369 655.68 19.2796C664.114 23.1196 672.206 27.5082 679.954 32.5139C689.295 19.9839 701.192 9.58259 714.857 1.99961L768 1.99961C736.594 1.99961 708.686 17.0853 691.2 40.3996C698.537 45.8853 705.531 51.9196 711.977 58.4339C718.307 49.4635 726.701 42.1461 736.451 37.0981C746.201 32.0502 757.021 29.4197 768 29.4282L768 43.1425C758.725 43.1441 749.602 45.4974 741.483 49.9824C733.365 54.4674 726.516 60.9376 721.577 68.7882C728.64 77.0168 735.086 85.931 740.709 95.2568C741.389 88.4911 744.557 82.2193 749.6 77.6579C754.643 73.0966 761.2 70.571 768 70.571L768 84.2853C766.158 84.2842 764.334 84.6542 762.639 85.3732C760.943 86.0922 759.409 87.1456 758.129 88.4703C756.849 89.7951 755.849 91.3642 755.189 93.0839C754.528 94.8036 754.221 96.6386 754.286 98.4796C758.85 98.1585 763.424 97.9985 768 97.9996L768 111.714C704.914 111.714 649.371 144.491 617.76 194L589.714 194ZM437.143 194L384 194L384 180.285C403.269 180.285 421.44 185.291 437.143 194ZM768 139.142L768 152.857C729.6 152.857 694.971 168.628 670.08 194L651.566 194C679.269 160.468 721.166 139.142 768 139.142ZM500.366 194L481.92 194C457.029 168.628 422.4 152.857 384 152.857L384 139.142C430.834 139.142 472.731 160.468 500.366 194ZM603.291 191.257C608.93 181.906 615.353 173.051 622.491 164.788C617.554 156.925 610.702 150.444 602.577 145.952C594.451 141.46 585.319 139.104 576.034 139.104C566.75 139.104 557.617 141.46 549.492 145.952C541.367 150.444 534.515 156.925 529.577 164.788C536.64 173.017 543.086 181.931 548.709 191.257C549.388 184.491 552.556 178.218 557.599 173.656C562.642 169.094 569.2 166.568 576 166.568C582.8 166.568 589.358 169.094 594.401 173.656C599.444 178.218 602.612 184.491 603.291 191.257ZM701.28 109.931C710.194 106.64 719.314 103.965 728.709 102.045C712.866 75.6906 690.473 53.8835 663.708 38.7442C636.943 23.6049 606.716 15.6485 575.966 15.6485C545.216 15.6485 514.989 23.6049 488.223 38.7442C461.458 53.8835 439.066 75.6906 423.223 102.045C432.686 103.965 441.874 106.64 450.72 109.931C464.493 89.3385 483.131 72.4587 504.982 60.7853C526.834 49.112 551.226 43.0051 576 43.0051C600.774 43.0051 625.166 49.112 647.018 60.7853C668.87 72.4587 687.507 89.3385 701.28 109.931ZM664.046 128.514C671.794 123.577 679.817 119.12 688.32 115.28C675.693 97.2008 658.888 82.4373 639.333 72.2434C619.778 62.0494 598.052 56.7263 576 56.7263C553.948 56.7263 532.222 62.0494 512.667 72.2434C493.112 82.4373 476.308 97.2008 463.68 115.28C472.114 119.12 480.206 123.508 487.954 128.514C498.146 114.758 511.419 103.581 526.708 95.8804C541.998 88.1793 558.88 84.1679 576 84.1679C593.12 84.1679 610.002 88.1793 625.292 95.8804C640.582 103.581 653.854 114.758 664.046 128.514ZM632.023 154.434C638.469 147.92 645.463 141.885 652.8 136.4C643.875 124.452 632.285 114.751 618.953 108.069C605.621 101.387 590.913 97.9079 576 97.9079C561.087 97.9079 546.379 101.387 533.047 108.069C519.715 114.751 508.125 124.452 499.2 136.4C506.537 141.885 513.531 147.92 519.977 154.434C526.299 145.45 534.689 138.118 544.439 133.056C554.19 127.995 565.014 125.353 576 125.353C586.986 125.353 597.81 127.995 607.561 133.056C617.311 138.118 625.701 145.45 632.023 154.434Z" fill="#9CA3AF"/>
</g>
<g clip-path="url(#clip2_870_43864)">
<path d="M1152 180.285L1152 194L1098.86 194C1114.63 185.291 1132.73 180.285 1152 180.285ZM973.714 194C973.714 190.362 972.269 186.874 969.697 184.302C967.126 181.73 963.637 180.285 960 180.285C956.363 180.285 952.874 181.73 950.303 184.302C947.731 186.874 946.286 190.362 946.286 194L918.24 194C902.129 168.764 879.918 147.996 853.659 133.614C827.4 119.232 797.94 111.7 768 111.714L768 97.9996C772.594 97.9996 777.189 98.1367 781.714 98.4796L781.714 97.9996C781.714 94.3623 780.269 90.8741 777.697 88.3021C775.126 85.7302 771.637 84.2853 768 84.2853L768 70.571C774.8 70.5709 781.357 73.0966 786.4 77.6579C791.443 82.2193 794.611 88.4911 795.291 95.2567C800.93 85.9056 807.353 77.0509 814.491 68.7882C809.546 60.9277 802.687 54.4513 794.555 49.9658C786.424 45.4803 777.287 43.1325 768 43.1425L768 29.4282C778.979 29.4197 789.799 32.0502 799.549 37.0981C809.299 42.1461 817.693 49.4635 824.023 58.4339C830.469 51.9196 837.463 45.8853 844.8 40.3996C835.865 28.4689 824.272 18.786 810.94 12.1201C797.608 5.45418 782.905 1.98893 768 1.99959L821.143 1.99959C834.857 9.54245 846.72 20.0339 856.114 32.5139C863.794 27.5767 871.886 23.1196 880.32 19.2796C875.999 13.1369 871.183 7.35764 865.92 1.9996L884.434 1.9996C887.52 5.8396 890.469 9.81674 893.28 13.931C902.194 10.6396 911.314 7.96531 920.709 6.04531C919.954 4.67388 919.131 3.30246 918.24 1.9996L946.286 1.9996L946.286 2.4796C955.417 1.83494 964.583 1.83494 973.714 2.4796L973.714 1.9996L1001.76 1.9996L999.223 6.04532C1008.69 7.96532 1017.87 10.6396 1026.72 13.931C1029.46 9.81675 1032.48 5.8396 1035.63 1.9996L1054.08 1.9996C1048.82 7.35765 1044 13.1369 1039.68 19.2796C1048.11 23.1196 1056.21 27.5082 1063.95 32.5139C1073.29 19.9839 1085.19 9.58259 1098.86 1.99961L1152 1.99961C1120.59 1.99961 1092.69 17.0853 1075.2 40.3996C1082.54 45.8853 1089.53 51.9196 1095.98 58.4339C1102.31 49.4635 1110.7 42.1461 1120.45 37.0981C1130.2 32.0502 1141.02 29.4197 1152 29.4282L1152 43.1425C1142.73 43.1441 1133.6 45.4974 1125.48 49.9824C1117.36 54.4674 1110.52 60.9376 1105.58 68.7882C1112.64 77.0168 1119.09 85.931 1124.71 95.2568C1125.39 88.4911 1128.56 82.2193 1133.6 77.6579C1138.64 73.0966 1145.2 70.571 1152 70.571L1152 84.2853C1150.16 84.2842 1148.33 84.6542 1146.64 85.3732C1144.94 86.0922 1143.41 87.1456 1142.13 88.4703C1140.85 89.7951 1139.85 91.3642 1139.19 93.0839C1138.53 94.8036 1138.22 96.6386 1138.29 98.4796C1142.85 98.1585 1147.42 97.9985 1152 97.9996L1152 111.714C1088.91 111.714 1033.37 144.491 1001.76 194L973.714 194ZM821.143 194L768 194L768 180.285C787.269 180.285 805.44 185.291 821.143 194ZM1152 139.142L1152 152.857C1113.6 152.857 1078.97 168.628 1054.08 194L1035.57 194C1063.27 160.468 1105.17 139.142 1152 139.142ZM884.366 194L865.92 194C841.029 168.628 806.4 152.857 768 152.857L768 139.142C814.834 139.142 856.731 160.468 884.366 194ZM987.291 191.257C992.93 181.906 999.353 173.051 1006.49 164.788C1001.55 156.925 994.702 150.444 986.577 145.952C978.451 141.46 969.319 139.104 960.034 139.104C950.75 139.104 941.617 141.46 933.492 145.952C925.367 150.444 918.515 156.925 913.577 164.788C920.64 173.017 927.086 181.931 932.709 191.257C933.388 184.491 936.556 178.218 941.599 173.656C946.642 169.094 953.2 166.568 960 166.568C966.8 166.568 973.358 169.094 978.401 173.656C983.444 178.218 986.612 184.491 987.291 191.257ZM1085.28 109.931C1094.19 106.64 1103.31 103.965 1112.71 102.045C1096.87 75.6906 1074.47 53.8835 1047.71 38.7442C1020.94 23.6049 990.716 15.6485 959.966 15.6485C929.216 15.6485 898.989 23.6049 872.223 38.7442C845.458 53.8835 823.066 75.6906 807.223 102.045C816.686 103.965 825.874 106.64 834.72 109.931C848.493 89.3385 867.131 72.4587 888.982 60.7853C910.834 49.112 935.226 43.0051 960 43.0051C984.774 43.0051 1009.17 49.112 1031.02 60.7853C1052.87 72.4587 1071.51 89.3385 1085.28 109.931ZM1048.05 128.514C1055.79 123.577 1063.82 119.12 1072.32 115.28C1059.69 97.2008 1042.89 82.4373 1023.33 72.2434C1003.78 62.0494 982.052 56.7263 960 56.7263C937.948 56.7263 916.222 62.0494 896.667 72.2434C877.112 82.4373 860.308 97.2008 847.68 115.28C856.114 119.12 864.206 123.508 871.954 128.514C882.146 114.758 895.419 103.581 910.708 95.8804C925.998 88.1793 942.88 84.1679 960 84.1679C977.12 84.1679 994.002 88.1793 1009.29 95.8804C1024.58 103.581 1037.85 114.758 1048.05 128.514ZM1016.02 154.434C1022.47 147.92 1029.46 141.885 1036.8 136.4C1027.87 124.452 1016.29 114.751 1002.95 108.069C989.621 101.387 974.913 97.9079 960 97.9079C945.087 97.9079 930.379 101.387 917.047 108.069C903.715 114.751 892.125 124.452 883.2 136.4C890.537 141.885 897.531 147.92 903.977 154.434C910.299 145.45 918.689 138.118 928.439 133.056C938.19 127.995 949.014 125.353 960 125.353C970.986 125.353 981.81 127.995 991.561 133.056C1001.31 138.118 1009.7 145.45 1016.02 154.434Z" fill="#9CA3AF"/>
</g>
<g clip-path="url(#clip3_870_43864)">
<path d="M1536 180.285L1536 194L1482.86 194C1498.63 185.291 1516.73 180.285 1536 180.285ZM1357.71 194C1357.71 190.362 1356.27 186.874 1353.7 184.302C1351.13 181.73 1347.64 180.285 1344 180.285C1340.36 180.285 1336.87 181.73 1334.3 184.302C1331.73 186.874 1330.29 190.362 1330.29 194L1302.24 194C1286.13 168.764 1263.92 147.996 1237.66 133.614C1211.4 119.232 1181.94 111.7 1152 111.714L1152 97.9996C1156.59 97.9996 1161.19 98.1367 1165.71 98.4796L1165.71 97.9996C1165.71 94.3623 1164.27 90.8741 1161.7 88.3021C1159.13 85.7302 1155.64 84.2853 1152 84.2853L1152 70.571C1158.8 70.5709 1165.36 73.0966 1170.4 77.6579C1175.44 82.2193 1178.61 88.4911 1179.29 95.2567C1184.93 85.9056 1191.35 77.0509 1198.49 68.7882C1193.55 60.9277 1186.69 54.4513 1178.56 49.9658C1170.42 45.4803 1161.29 43.1325 1152 43.1425L1152 29.4282C1162.98 29.4197 1173.8 32.0502 1183.55 37.0981C1193.3 42.1461 1201.69 49.4635 1208.02 58.4339C1214.47 51.9196 1221.46 45.8853 1228.8 40.3996C1219.87 28.4689 1208.27 18.786 1194.94 12.1201C1181.61 5.45418 1166.91 1.98893 1152 1.99959L1205.14 1.99959C1218.86 9.54245 1230.72 20.0339 1240.11 32.5139C1247.79 27.5767 1255.89 23.1196 1264.32 19.2796C1260 13.1369 1255.18 7.35764 1249.92 1.9996L1268.43 1.9996C1271.52 5.8396 1274.47 9.81674 1277.28 13.931C1286.19 10.6396 1295.31 7.96531 1304.71 6.04531C1303.95 4.67388 1303.13 3.30246 1302.24 1.9996L1330.29 1.9996L1330.29 2.4796C1339.42 1.83494 1348.58 1.83494 1357.71 2.4796L1357.71 1.9996L1385.76 1.9996L1383.22 6.04532C1392.69 7.96532 1401.87 10.6396 1410.72 13.931C1413.46 9.81675 1416.48 5.8396 1419.63 1.9996L1438.08 1.9996C1432.82 7.35765 1428 13.1369 1423.68 19.2796C1432.11 23.1196 1440.21 27.5082 1447.95 32.5139C1457.29 19.9839 1469.19 9.58259 1482.86 1.99961L1536 1.99961C1504.59 1.99961 1476.69 17.0853 1459.2 40.3996C1466.54 45.8853 1473.53 51.9196 1479.98 58.4339C1486.31 49.4635 1494.7 42.1461 1504.45 37.0981C1514.2 32.0502 1525.02 29.4197 1536 29.4282L1536 43.1425C1526.73 43.1441 1517.6 45.4974 1509.48 49.9824C1501.36 54.4674 1494.52 60.9376 1489.58 68.7882C1496.64 77.0168 1503.09 85.931 1508.71 95.2568C1509.39 88.4911 1512.56 82.2193 1517.6 77.6579C1522.64 73.0966 1529.2 70.571 1536 70.571L1536 84.2853C1534.16 84.2842 1532.33 84.6542 1530.64 85.3732C1528.94 86.0922 1527.41 87.1456 1526.13 88.4703C1524.85 89.7951 1523.85 91.3642 1523.19 93.0839C1522.53 94.8036 1522.22 96.6386 1522.29 98.4796C1526.85 98.1585 1531.42 97.9985 1536 97.9996L1536 111.714C1472.91 111.714 1417.37 144.491 1385.76 194L1357.71 194ZM1205.14 194L1152 194L1152 180.285C1171.27 180.285 1189.44 185.291 1205.14 194ZM1536 139.142L1536 152.857C1497.6 152.857 1462.97 168.628 1438.08 194L1419.57 194C1447.27 160.468 1489.17 139.142 1536 139.142ZM1268.37 194L1249.92 194C1225.03 168.628 1190.4 152.857 1152 152.857L1152 139.142C1198.83 139.142 1240.73 160.468 1268.37 194ZM1371.29 191.257C1376.93 181.906 1383.35 173.051 1390.49 164.788C1385.55 156.925 1378.7 150.444 1370.58 145.952C1362.45 141.46 1353.32 139.104 1344.03 139.104C1334.75 139.104 1325.62 141.46 1317.49 145.952C1309.37 150.444 1302.51 156.925 1297.58 164.788C1304.64 173.017 1311.09 181.931 1316.71 191.257C1317.39 184.491 1320.56 178.218 1325.6 173.656C1330.64 169.094 1337.2 166.568 1344 166.568C1350.8 166.568 1357.36 169.094 1362.4 173.656C1367.44 178.218 1370.61 184.491 1371.29 191.257ZM1469.28 109.931C1478.19 106.64 1487.31 103.965 1496.71 102.045C1480.87 75.6906 1458.47 53.8835 1431.71 38.7442C1404.94 23.6049 1374.72 15.6485 1343.97 15.6485C1313.22 15.6485 1282.99 23.6049 1256.22 38.7442C1229.46 53.8835 1207.07 75.6906 1191.22 102.045C1200.69 103.965 1209.87 106.64 1218.72 109.931C1232.49 89.3385 1251.13 72.4587 1272.98 60.7853C1294.83 49.112 1319.23 43.0051 1344 43.0051C1368.77 43.0051 1393.17 49.112 1415.02 60.7853C1436.87 72.4587 1455.51 89.3385 1469.28 109.931ZM1432.05 128.514C1439.79 123.577 1447.82 119.12 1456.32 115.28C1443.69 97.2008 1426.89 82.4373 1407.33 72.2434C1387.78 62.0494 1366.05 56.7263 1344 56.7263C1321.95 56.7263 1300.22 62.0494 1280.67 72.2434C1261.11 82.4373 1244.31 97.2008 1231.68 115.28C1240.11 119.12 1248.21 123.508 1255.95 128.514C1266.15 114.758 1279.42 103.581 1294.71 95.8804C1310 88.1793 1326.88 84.1679 1344 84.1679C1361.12 84.1679 1378 88.1793 1393.29 95.8804C1408.58 103.581 1421.85 114.758 1432.05 128.514ZM1400.02 154.434C1406.47 147.92 1413.46 141.885 1420.8 136.4C1411.87 124.452 1400.29 114.751 1386.95 108.069C1373.62 101.387 1358.91 97.9079 1344 97.9079C1329.09 97.9079 1314.38 101.387 1301.05 108.069C1287.71 114.751 1276.13 124.452 1267.2 136.4C1274.54 141.885 1281.53 147.92 1287.98 154.434C1294.3 145.45 1302.69 138.118 1312.44 133.056C1322.19 127.995 1333.01 125.353 1344 125.353C1354.99 125.353 1365.81 127.995 1375.56 133.056C1385.31 138.118 1393.7 145.45 1400.02 154.434Z" fill="#9CA3AF"/>
</g>
<g clip-path="url(#clip4_870_43864)">
<path d="M1920 180.285L1920 194L1866.86 194C1882.63 185.291 1900.73 180.285 1920 180.285ZM1741.71 194C1741.71 190.362 1740.27 186.874 1737.7 184.302C1735.13 181.73 1731.64 180.285 1728 180.285C1724.36 180.285 1720.87 181.73 1718.3 184.302C1715.73 186.874 1714.29 190.362 1714.29 194L1686.24 194C1670.13 168.764 1647.92 147.996 1621.66 133.614C1595.4 119.232 1565.94 111.7 1536 111.714L1536 97.9996C1540.59 97.9996 1545.19 98.1367 1549.71 98.4796L1549.71 97.9996C1549.71 94.3623 1548.27 90.8741 1545.7 88.3021C1543.13 85.7302 1539.64 84.2853 1536 84.2853L1536 70.571C1542.8 70.5709 1549.36 73.0966 1554.4 77.6579C1559.44 82.2193 1562.61 88.4911 1563.29 95.2567C1568.93 85.9056 1575.35 77.0509 1582.49 68.7882C1577.55 60.9277 1570.69 54.4513 1562.56 49.9658C1554.42 45.4803 1545.29 43.1325 1536 43.1425L1536 29.4282C1546.98 29.4197 1557.8 32.0502 1567.55 37.0981C1577.3 42.1461 1585.69 49.4635 1592.02 58.4339C1598.47 51.9196 1605.46 45.8853 1612.8 40.3996C1603.87 28.4689 1592.27 18.786 1578.94 12.1201C1565.61 5.45418 1550.91 1.98893 1536 1.99959L1589.14 1.99959C1602.86 9.54245 1614.72 20.0339 1624.11 32.5139C1631.79 27.5767 1639.89 23.1196 1648.32 19.2796C1644 13.1369 1639.18 7.35764 1633.92 1.9996L1652.43 1.9996C1655.52 5.8396 1658.47 9.81674 1661.28 13.931C1670.19 10.6396 1679.31 7.96531 1688.71 6.04531C1687.95 4.67388 1687.13 3.30246 1686.24 1.9996L1714.29 1.9996L1714.29 2.4796C1723.42 1.83494 1732.58 1.83494 1741.71 2.4796L1741.71 1.9996L1769.76 1.9996L1767.22 6.04532C1776.69 7.96532 1785.87 10.6396 1794.72 13.931C1797.46 9.81675 1800.48 5.8396 1803.63 1.9996L1822.08 1.9996C1816.82 7.35765 1812 13.1369 1807.68 19.2796C1816.11 23.1196 1824.21 27.5082 1831.95 32.5139C1841.29 19.9839 1853.19 9.58259 1866.86 1.99961L1920 1.99961C1888.59 1.99961 1860.69 17.0853 1843.2 40.3996C1850.54 45.8853 1857.53 51.9196 1863.98 58.4339C1870.31 49.4635 1878.7 42.1461 1888.45 37.0981C1898.2 32.0502 1909.02 29.4197 1920 29.4282L1920 43.1425C1910.73 43.1441 1901.6 45.4974 1893.48 49.9824C1885.36 54.4674 1878.52 60.9376 1873.58 68.7882C1880.64 77.0168 1887.09 85.931 1892.71 95.2568C1893.39 88.4911 1896.56 82.2193 1901.6 77.6579C1906.64 73.0966 1913.2 70.571 1920 70.571L1920 84.2853C1918.16 84.2842 1916.33 84.6542 1914.64 85.3732C1912.94 86.0922 1911.41 87.1456 1910.13 88.4703C1908.85 89.7951 1907.85 91.3642 1907.19 93.0839C1906.53 94.8036 1906.22 96.6386 1906.29 98.4796C1910.85 98.1585 1915.42 97.9985 1920 97.9996L1920 111.714C1856.91 111.714 1801.37 144.491 1769.76 194L1741.71 194ZM1589.14 194L1536 194L1536 180.285C1555.27 180.285 1573.44 185.291 1589.14 194ZM1920 139.142L1920 152.857C1881.6 152.857 1846.97 168.628 1822.08 194L1803.57 194C1831.27 160.468 1873.17 139.142 1920 139.142ZM1652.37 194L1633.92 194C1609.03 168.628 1574.4 152.857 1536 152.857L1536 139.142C1582.83 139.142 1624.73 160.468 1652.37 194ZM1755.29 191.257C1760.93 181.906 1767.35 173.051 1774.49 164.788C1769.55 156.925 1762.7 150.444 1754.58 145.952C1746.45 141.46 1737.32 139.104 1728.03 139.104C1718.75 139.104 1709.62 141.46 1701.49 145.952C1693.37 150.444 1686.51 156.925 1681.58 164.788C1688.64 173.017 1695.09 181.931 1700.71 191.257C1701.39 184.491 1704.56 178.218 1709.6 173.656C1714.64 169.094 1721.2 166.568 1728 166.568C1734.8 166.568 1741.36 169.094 1746.4 173.656C1751.44 178.218 1754.61 184.491 1755.29 191.257ZM1853.28 109.931C1862.19 106.64 1871.31 103.965 1880.71 102.045C1864.87 75.6906 1842.47 53.8835 1815.71 38.7442C1788.94 23.6049 1758.72 15.6485 1727.97 15.6485C1697.22 15.6485 1666.99 23.6049 1640.22 38.7442C1613.46 53.8835 1591.07 75.6906 1575.22 102.045C1584.69 103.965 1593.87 106.64 1602.72 109.931C1616.49 89.3385 1635.13 72.4587 1656.98 60.7853C1678.83 49.112 1703.23 43.0051 1728 43.0051C1752.77 43.0051 1777.17 49.112 1799.02 60.7853C1820.87 72.4587 1839.51 89.3385 1853.28 109.931ZM1816.05 128.514C1823.79 123.577 1831.82 119.12 1840.32 115.28C1827.69 97.2008 1810.89 82.4373 1791.33 72.2434C1771.78 62.0494 1750.05 56.7263 1728 56.7263C1705.95 56.7263 1684.22 62.0494 1664.67 72.2434C1645.11 82.4373 1628.31 97.2008 1615.68 115.28C1624.11 119.12 1632.21 123.508 1639.95 128.514C1650.15 114.758 1663.42 103.581 1678.71 95.8804C1694 88.1793 1710.88 84.1679 1728 84.1679C1745.12 84.1679 1762 88.1793 1777.29 95.8804C1792.58 103.581 1805.85 114.758 1816.05 128.514ZM1784.02 154.434C1790.47 147.92 1797.46 141.885 1804.8 136.4C1795.87 124.452 1784.29 114.751 1770.95 108.069C1757.62 101.387 1742.91 97.9079 1728 97.9079C1713.09 97.9079 1698.38 101.387 1685.05 108.069C1671.71 114.751 1660.13 124.452 1651.2 136.4C1658.54 141.885 1665.53 147.92 1671.98 154.434C1678.3 145.45 1686.69 138.118 1696.44 133.056C1706.19 127.995 1717.01 125.353 1728 125.353C1738.99 125.353 1749.81 127.995 1759.56 133.056C1769.31 138.118 1777.7 145.45 1784.02 154.434Z" fill="#9CA3AF"/>
</g>
</g>
<defs>
<clipPath id="clip0_870_43864">
<rect width="384" height="192" fill="white" transform="translate(0 2)"/>
</clipPath>
<clipPath id="clip1_870_43864">
<rect width="384" height="192" fill="white" transform="translate(384 2)"/>
</clipPath>
<clipPath id="clip2_870_43864">
<rect width="384" height="192" fill="white" transform="translate(768 2)"/>
</clipPath>
<clipPath id="clip3_870_43864">
<rect width="384" height="192" fill="white" transform="translate(1152 2)"/>
</clipPath>
<clipPath id="clip4_870_43864">
<rect width="384" height="192" fill="white" transform="translate(1536 2)"/>
</clipPath>
</defs>
</svg>
