<svg width="21" height="20" viewBox="0 0 21 20" fill="none" xmlns="http://www.w3.org/2000/svg">
<path d="M18 6.45801H3C2.65833 6.45801 2.375 6.17467 2.375 5.83301C2.375 5.49134 2.65833 5.20801 3 5.20801H18C18.3417 5.20801 18.625 5.49134 18.625 5.83301C18.625 6.17467 18.3417 6.45801 18 6.45801Z" fill="white"/>
<path d="M16.1394 10.4858H4.48558C4.22013 10.4858 4 10.2657 4 10.0002C4 9.73478 4.22013 9.51465 4.48558 9.51465H16.1394C16.4049 9.51465 16.625 9.73478 16.625 10.0002C16.625 10.2657 16.4049 10.4858 16.1394 10.4858Z" fill="white"/>
<path d="M14.6538 15H6.34615C6.15692 15 6 14.7733 6 14.5C6 14.2267 6.15692 14 6.34615 14H14.6538C14.8431 14 15 14.2267 15 14.5C15 14.7733 14.8431 15 14.6538 15Z" fill="white"/>
</svg>
