<svg width="30" height="34" viewBox="0 0 30 34" fill="none" xmlns="http://www.w3.org/2000/svg">
<path fill-rule="evenodd" clip-rule="evenodd" d="M15.3763 0.954951L29.1758 7.81727C29.5133 7.96774 29.6638 8.30525 29.6638 8.64275C29.2883 14.7923 27.7133 19.7423 25.2383 23.7923C22.7633 27.8423 19.4261 30.9177 15.4506 33.2801C15.1511 33.4671 14.8136 33.4305 14.5506 33.2801C10.613 30.9176 7.23832 27.8423 4.76296 23.7923C2.32594 19.7045 0.750759 14.7545 0.375279 8.60459C0.337309 8.22911 0.56231 7.92959 0.863259 7.77911L14.625 0.954591C14.85 0.804122 15.1509 0.842091 15.3759 0.954591L15.3763 0.954951ZM16.3888 21.6171H13.5763C13.4638 21.6171 13.3893 21.5792 13.2768 21.5792C12.8268 21.4287 12.6018 20.9422 12.7522 20.4922L13.6522 17.9426C13.2022 17.7176 12.7902 17.3422 12.5272 16.9301C12.2277 16.4801 12.0393 15.9176 12.0393 15.3551C12.0393 14.5297 12.3768 13.8181 12.9013 13.2922C13.4258 12.7676 14.1388 12.4301 14.9643 12.4301C15.7518 12.4301 16.5013 12.7676 17.0272 13.2922C17.5518 13.8167 17.8893 14.5297 17.8893 15.3551C17.8893 15.9176 17.7022 16.4801 17.4393 16.9301C17.1763 17.3422 16.7643 17.7176 16.3143 17.9426L17.1763 20.4556C17.2143 20.5681 17.2508 20.6806 17.2508 20.7931C17.2508 21.2417 16.8753 21.6172 16.3888 21.6172V21.6171Z" fill="#00E1F0"/>
</svg>
