<svg width="22" height="22" viewBox="0 0 22 22" fill="none" xmlns="http://www.w3.org/2000/svg">
<path d="M11 5.99985C14.79 5.99985 18.17 8.12985 19.82 11.4998C18.17 14.8698 14.79 16.9998 11 16.9998C7.21 16.9998 3.83 14.8698 2.18 11.4998C3.83 8.12985 7.21 5.99985 11 5.99985ZM11 3.99985C6 3.99985 1.73 7.10985 0 11.4998C1.73 15.8898 6 18.9998 11 18.9998C16 18.9998 20.27 15.8898 22 11.4998C20.27 7.10985 16 3.99985 11 3.99985ZM11 8.99985C12.38 8.99985 13.5 10.1198 13.5 11.4998C13.5 12.8798 12.38 13.9998 11 13.9998C9.62 13.9998 8.5 12.8798 8.5 11.4998C8.5 10.1198 9.62 8.99985 11 8.99985ZM11 6.99985C8.52 6.99985 6.5 9.01985 6.5 11.4998C6.5 13.9798 8.52 15.9998 11 15.9998C13.48 15.9998 15.5 13.9798 15.5 11.4998C15.5 9.01985 13.48 6.99985 11 6.99985Z" fill="#6B6F80"/>
<path fill-rule="evenodd" clip-rule="evenodd" d="M21.7071 0.706956C22.0976 1.09748 22.0976 1.73064 21.7071 2.12117L2.12132 21.707C1.7308 22.0975 1.09763 22.0975 0.707107 21.707C0.316583 21.3164 0.316583 20.6833 0.707107 20.2927L20.2929 0.706956C20.6834 0.316431 21.3166 0.316431 21.7071 0.706956Z" fill="#6B6F80"/>
</svg>
