<svg width="20" height="21" viewBox="0 0 20 21" fill="none" xmlns="http://www.w3.org/2000/svg">
<path d="M20.2057 10.2451C20.2057 9.51294 20.1382 8.81235 20.0129 8.13867H10.3184V11.9983L15.9017 11.9995C15.6752 13.2837 14.9464 14.3784 13.8298 15.1082V17.6123H17.1532C19.0938 15.8685 20.2057 13.2907 20.2057 10.2451Z" fill="#4285F4"/>
<path d="M13.8302 15.109C12.9051 15.7149 11.7138 16.0693 10.32 16.0693C7.62777 16.0693 5.34385 14.3079 4.52593 11.9336H1.09766V14.516C2.79614 17.7886 6.28705 20.0342 10.32 20.0342C13.1075 20.0342 15.4492 19.1441 17.1537 17.612L13.8302 15.109Z" fill="#34A853"/>
<path d="M4.20283 10.017C4.20283 9.35032 4.31727 8.70588 4.52566 8.10003V5.51758H1.09738C0.395105 6.87079 0 8.39827 0 10.017C0 11.6357 0.39631 13.1632 1.09738 14.5164L4.52566 11.9339C4.31727 11.3281 4.20283 10.6836 4.20283 10.017Z" fill="#FABB05"/>
<path d="M10.32 3.9649C11.8414 3.9649 13.2038 4.47368 14.2795 5.46782L17.2248 2.61052C15.436 0.992981 13.1039 0 10.32 0C6.28826 0 2.79614 2.24561 1.09766 5.51812L4.52593 8.10057C5.34385 5.72631 7.62777 3.9649 10.32 3.9649Z" fill="#E94235"/>
</svg>
