<svg width="14" height="13" viewBox="0 0 14 13" fill="none" xmlns="http://www.w3.org/2000/svg">
<path d="M6.66761 0.401191C6.89282 -0.133731 7.65987 -0.13373 7.88508 0.401193L9.21428 3.5584C9.30928 3.78391 9.52396 3.93799 9.77037 3.95751L13.2205 4.23077C13.8051 4.27707 14.0421 4.99775 13.5967 5.37465L10.9681 7.59914C10.7804 7.75806 10.6983 8.00739 10.7557 8.24493L11.5588 11.571C11.6948 12.1345 11.0743 12.58 10.5738 12.278L7.62001 10.4956C7.40902 10.3683 7.14367 10.3683 6.93269 10.4956L3.97885 12.278C3.47838 12.58 2.85783 12.1345 2.99389 11.571L3.797 8.24493C3.85436 8.00739 3.77236 7.75806 3.58461 7.59914L0.955926 5.37465C0.510552 4.99775 0.747585 4.27707 1.33215 4.23077L4.78233 3.95751C5.02877 3.93799 5.24344 3.78391 5.33839 3.5584L6.66761 0.401191Z" fill="#359944"/>
</svg>
