<svg width="18" height="19" viewBox="0 0 18 19" fill="none" xmlns="http://www.w3.org/2000/svg">
<path d="M16.7143 10.4815H10.2857V16.9101C10.2857 17.6172 9.70714 18.1958 9 18.1958C8.29286 18.1958 7.71429 17.6172 7.71429 16.9101V10.4815H1.28571C0.578571 10.4815 0 9.90294 0 9.1958C0 8.48866 0.578571 7.91009 1.28571 7.91009H7.71429V1.48152C7.71429 0.774372 8.29286 0.195801 9 0.195801C9.70714 0.195801 10.2857 0.774372 10.2857 1.48152V7.91009H16.7143C17.4214 7.91009 18 8.48866 18 9.1958C18 9.90294 17.4214 10.4815 16.7143 10.4815Z" fill="#E65539"/>
</svg>
