<svg width="16" height="17" viewBox="0 0 16 17" fill="none" xmlns="http://www.w3.org/2000/svg">
<path d="M7.71777 1.62891C7.82114 1.38417 8.17885 1.38418 8.28223 1.62891L9.90527 5.48438C10.0947 5.93412 10.5211 6.23797 11.0059 6.27637L15.2188 6.60938C15.4981 6.63152 15.5892 6.961 15.3945 7.12598L12.1846 9.84277C11.8125 10.1579 11.648 10.6546 11.7627 11.1299L12.7432 15.1914C12.801 15.4311 12.5305 15.6572 12.2852 15.5098L8.67773 13.333C8.26129 13.0818 7.73871 13.0817 7.32227 13.333L3.71484 15.5098C3.46953 15.6572 3.19896 15.4311 3.25684 15.1914L4.2373 11.1299C4.35198 10.6547 4.18759 10.1579 3.81543 9.84277L0.605469 7.12598C0.410831 6.96101 0.501933 6.63152 0.78125 6.60938L4.99414 6.27637C5.47892 6.23797 5.90534 5.93423 6.09473 5.48438L7.71777 1.62891Z" stroke="#FA8F21"/>
</svg>
