<svg width="38" height="29" viewBox="0 0 38 29" fill="none" xmlns="http://www.w3.org/2000/svg">
<path d="M33.7207 15.7577H23.3207C22.8004 15.7577 22.4004 15.3577 22.4004 14.8374V4.43739C22.4004 3.91707 21.9597 3.47803 21.441 3.51707C17.841 3.79676 14.7206 5.63739 12.641 8.35787C11.441 7.67819 10.041 7.27819 8.56142 7.27819C3.84102 7.27819 0.0410156 11.1188 0.0410156 15.7986C0.0410156 20.4783 3.88166 24.319 8.56142 24.319C10.0817 24.319 11.4817 23.8783 12.7206 23.1987C14.9613 26.119 18.441 28.0395 22.2798 28.0783C28.839 28.1579 34.2002 23.1579 34.6798 16.7579C34.7204 16.1969 34.2798 15.7579 33.7205 15.7579L33.7207 15.7577ZM2.1599 15.7968C2.1599 12.2764 5.00054 9.43757 8.5191 9.43757C12.0394 9.43757 14.8783 12.2782 14.8783 15.7968C14.8783 19.3171 12.0377 22.156 8.5191 22.156C5.00034 22.1575 2.1599 19.2763 2.1599 15.7968Z" fill="#FF7F5C"/>
<path d="M26.6801 0.157876C26.1597 0.117252 25.7207 0.557876 25.7207 1.0782V11.4782C25.7207 11.9985 26.1207 12.3985 26.641 12.3985H37.041C37.5613 12.3985 38.0004 11.9579 37.9613 11.4392C37.5207 5.43756 32.7205 0.637556 26.6801 0.157956L26.6801 0.157876Z" fill="#FF7F5C"/>
<path d="M8.87955 14.9966H8.19987C7.99987 14.9966 7.84049 14.9169 7.67955 14.756C7.55924 14.5966 7.47955 14.4356 7.52017 14.2356C7.5608 13.8763 7.87955 13.6356 8.24049 13.6356H8.99985C9.19985 13.6356 9.35923 13.7559 9.39985 13.9559C9.44048 14.1153 9.55923 14.2356 9.75923 14.2356H10.6389C10.7592 14.2356 10.8389 14.195 10.9186 14.1153C10.9983 14.0356 10.9983 13.9559 10.9983 13.8356C10.9186 12.9153 10.1983 12.195 9.31861 12.0763V11.356C9.31861 11.156 9.15923 10.9966 8.95923 10.9966H8.07955C7.87955 10.9966 7.72017 11.156 7.72017 11.356V12.1169C6.59985 12.3575 5.79985 13.3966 5.92017 14.5575C6.04049 15.7169 7.04049 16.5982 8.24049 16.5982H8.79985C8.99985 16.5982 9.15923 16.6778 9.32017 16.8388C9.44049 16.9982 9.52017 17.1591 9.47955 17.3591C9.43893 17.7185 9.12017 17.9591 8.75923 17.9591H7.99987C7.79987 17.9591 7.64049 17.8388 7.59987 17.6388C7.55925 17.4794 7.44049 17.3591 7.24049 17.3591H6.36081C6.2405 17.3591 6.16081 17.3997 6.08113 17.4794C6.00144 17.5591 6.00144 17.6388 6.00144 17.7591C6.08113 18.6794 6.80144 19.3997 7.68112 19.5185V20.2388C7.68112 20.4388 7.84049 20.5982 8.04049 20.5982H8.92017C9.12017 20.5982 9.27955 20.4388 9.27955 20.2388V19.4794C10.2389 19.2388 10.9592 18.4794 11.0795 17.5201C11.1592 16.8794 10.9202 16.2404 10.5202 15.7607C10.1202 15.2763 9.52019 14.9966 8.87955 14.9966V14.9966Z" fill="#FF7F5C"/>
</svg>
