<svg width="48" height="48" viewBox="0 0 48 48" fill="none" xmlns="http://www.w3.org/2000/svg">
<rect width="48" height="48" rx="24" fill="#1F2937"/>
<path d="M19.1504 33.1C18.9004 32.85 18.7754 32.554 18.7754 32.212C18.7754 31.8707 18.9004 31.575 19.1504 31.325L26.4754 24L19.1254 16.65C18.8921 16.4167 18.7754 16.125 18.7754 15.775C18.7754 15.425 18.9004 15.125 19.1504 14.875C19.4004 14.625 19.6964 14.5 20.0384 14.5C20.3797 14.5 20.6754 14.625 20.9254 14.875L29.3254 23.3C29.4254 23.4 29.4964 23.5083 29.5384 23.625C29.5797 23.7417 29.6004 23.8667 29.6004 24C29.6004 24.1333 29.5797 24.2583 29.5384 24.375C29.4964 24.4917 29.4254 24.6 29.3254 24.7L20.9004 33.125C20.6671 33.3583 20.3797 33.475 20.0384 33.475C19.6964 33.475 19.4004 33.35 19.1504 33.1Z" fill="white"/>
</svg>
