<svg width="20" height="21" viewBox="0 0 20 21" fill="none" xmlns="http://www.w3.org/2000/svg">
<path d="M17.3087 16.7951C17.3087 17.0951 17.242 17.4034 17.1003 17.7034C16.9587 18.0034 16.7753 18.2868 16.5337 18.5534C16.1253 19.0034 15.6753 19.3284 15.167 19.5368C14.667 19.7451 14.1253 19.8534 13.542 19.8534C12.692 19.8534 11.7837 19.6534 10.8253 19.2451C9.86699 18.8368 8.90866 18.2868 7.95866 17.5951C7.00033 16.8951 6.09199 16.1201 5.22533 15.2618C4.36699 14.3951 3.59199 13.4868 2.90033 12.5368C2.21699 11.5868 1.66699 10.6368 1.26699 9.6951C0.866992 8.7451 0.666992 7.83677 0.666992 6.9701C0.666992 6.40343 0.766992 5.86177 0.966992 5.36177C1.16699 4.85343 1.48366 4.38677 1.92533 3.9701C2.45866 3.4451 3.04199 3.18677 3.65866 3.18677C3.89199 3.18677 4.12533 3.23677 4.33366 3.33677C4.55033 3.43677 4.74199 3.58677 4.89199 3.80343L6.82533 6.52843C6.97533 6.73677 7.08366 6.92843 7.15866 7.11177C7.23366 7.28677 7.27533 7.46177 7.27533 7.6201C7.27533 7.8201 7.21699 8.0201 7.10033 8.21177C6.99199 8.40343 6.83366 8.60343 6.63366 8.80343L6.00033 9.46177C5.90866 9.55343 5.86699 9.66177 5.86699 9.7951C5.86699 9.86177 5.87533 9.9201 5.89199 9.98677C5.91699 10.0534 5.94199 10.1034 5.95866 10.1534C6.10866 10.4284 6.36699 10.7868 6.73366 11.2201C7.10866 11.6534 7.50866 12.0951 7.94199 12.5368C8.39199 12.9784 8.82533 13.3868 9.26699 13.7618C9.70033 14.1284 10.0587 14.3784 10.342 14.5284C10.3837 14.5451 10.4337 14.5701 10.492 14.5951C10.5587 14.6201 10.6253 14.6284 10.7003 14.6284C10.842 14.6284 10.9503 14.5784 11.042 14.4868L11.6753 13.8618C11.8837 13.6534 12.0837 13.4951 12.2753 13.3951C12.467 13.2784 12.6587 13.2201 12.867 13.2201C13.0253 13.2201 13.192 13.2534 13.3753 13.3284C13.5587 13.4034 13.7503 13.5118 13.9587 13.6534L16.717 15.6118C16.9337 15.7618 17.0837 15.9368 17.1753 16.1451C17.2587 16.3534 17.3087 16.5618 17.3087 16.7951Z" stroke="#F3F4F6" stroke-width="1.2" stroke-miterlimit="10"/>
<path d="M14.4167 9.02018C14.4167 8.52018 14.025 7.75352 13.4417 7.12852C12.9083 6.55352 12.2 6.10352 11.5 6.10352" stroke="#F3F4F6" stroke-width="1.2" stroke-linecap="round" stroke-linejoin="round"/>
<path d="M17.3333 9.0201C17.3333 5.7951 14.725 3.18677 11.5 3.18677" stroke="#F3F4F6" stroke-width="1.2" stroke-linecap="round" stroke-linejoin="round"/>
</svg>
